<svg xmlns="http://www.w3.org/2000/svg" viewBox="0 0 341.28 23.58"><defs><style>.cls-1{fill:#1999d6;}.cls-2,.cls-5,.cls-6{fill:#fff;}.cls-3{fill:#0058a0;}.cls-16,.cls-17,.cls-18,.cls-19,.cls-20,.cls-3,.cls-4,.cls-6{fill-rule:evenodd;}.cls-4{fill:#faa61a;}.cls-5{stroke:#1d1d1b;stroke-miterlimit:2.61;stroke-width:0.22px;}.cls-7{fill:#0033a1;}.cls-8{fill:#ff9e18;}.cls-16,.cls-9{fill:#003473;}.cls-10,.cls-18{fill:#ed1b2e;}.cls-11{fill:#fcb131;}.cls-12{fill:#010101;}.cls-13{fill:#f26522;}.cls-14{fill:#e51b24;}.cls-15{fill:#f99f1c;}.cls-17{fill:#009ddd;}.cls-19{fill:#ed2225;}.cls-20{fill:#f2ae1d;}</style></defs><title>cards</title><g id="Layer_2" data-name="Layer 2"><g id="Layer_1-2" data-name="Layer 1"><path class="cls-1" d="M38.67,18.08a5.07,5.07,0,0,1-5.45-5.42,7.64,7.64,0,0,1,7.7-7.16,9.3,9.3,0,0,1,4.13.93l-.55,2.9a7.32,7.32,0,0,0-3.83-1,4.17,4.17,0,0,0-4.33,4,2.73,2.73,0,0,0,2.86,3,6.16,6.16,0,0,0,1.28-.15l.75-4h2.92l-1.13,6a11,11,0,0,1-4.35.9"/><polygon class="cls-1" points="53.46 11.2 47.64 7.72 46.1 15.85 53.46 11.2"/><path class="cls-2" d="M10.17,9.9a2.35,2.35,0,0,1,2.62,2.26,3.11,3.11,0,0,1-3.14,3A2.33,2.33,0,0,1,7,12.92a3.11,3.11,0,0,1,3.13-3m-.49,3.87a1.46,1.46,0,0,0,1.4-1.5.89.89,0,0,0-.92-1,1.5,1.5,0,0,0-1.41,1.53.87.87,0,0,0,.93.93"/><path class="cls-2" d="M14.52,8.06h2.67a2.38,2.38,0,0,1,1.07.22,1.85,1.85,0,0,1,1,1.77,2.86,2.86,0,0,1-1.6,2.61,2.54,2.54,0,0,1-1.08.24H15.3l-.42,2.16H13.16Zm1.89,3.37a.92.92,0,0,0,.58-.15,1.27,1.27,0,0,0,.53-1.07.63.63,0,0,0-.7-.68H16l-.37,1.9Z"/><path class="cls-2" d="M22.46,11.92h.07c0-.07,0-.16,0-.19,0-.33-.24-.46-.64-.46a3.67,3.67,0,0,0-1.45.46l-.37-1.27a5.19,5.19,0,0,1,2.16-.56c.85,0,2,.34,2,1.61a3,3,0,0,1,0,.49l-.59,3.06H22.06l.06-.3a1.58,1.58,0,0,1,.09-.31h0a2,2,0,0,1-1.49.73,1.34,1.34,0,0,1-1.47-1.3c0-1.53,1.94-2,3.23-2m-1.13,2a1.2,1.2,0,0,0,1-.89l0-.11h-.16c-.36,0-1.26.08-1.26.68,0,.18.12.32.4.32"/><path class="cls-2" d="M25.1,15.69a1,1,0,0,0,.92-.51l.14-.24L25,10h1.76l.41,2.49a5.55,5.55,0,0,1,.05.75h0s.17-.44.3-.72L28.66,10h1.9l-3.15,5.57a2.61,2.61,0,0,1-2.2,1.52,2.57,2.57,0,0,1-1.32-.4l.73-1.17a.64.64,0,0,0,.48.17"/><path class="cls-2" d="M3.21,15.21A3,3,0,0,1,0,12.06,4.48,4.48,0,0,1,4.53,7.88a5.33,5.33,0,0,1,2.41.54l-.32,1.69a4.26,4.26,0,0,0-2.24-.6,2.46,2.46,0,0,0-2.55,2.32,1.59,1.59,0,0,0,1.68,1.76,2.91,2.91,0,0,0,.75-.09l.44-2.3H6.41l-.66,3.48a6.31,6.31,0,0,1-2.54.53"/><polygon class="cls-3" points="71.11 17.21 72.85 6.4 75.65 6.4 73.9 17.21 71.11 17.21 71.11 17.21"/><path class="cls-3" d="M84,6.67a6.84,6.84,0,0,0-2.51-.46c-2.76,0-4.7,1.47-4.71,3.57,0,1.55,1.39,2.42,2.45,2.93s1.45.88,1.45,1.35c0,.72-.88,1.06-1.68,1.06a5.44,5.44,0,0,1-2.62-.58L76,14.37l-.39,2.43a8.41,8.41,0,0,0,3.11.57c2.94,0,4.85-1.45,4.87-3.69,0-1.23-.74-2.17-2.35-2.94-1-.5-1.57-.83-1.57-1.34s.5-.93,1.61-.93a4.76,4.76,0,0,1,2.08.42l.25.11L84,6.67Z"/><path class="cls-3" d="M87.75,13.38l1.11-3s.23-.63.37-1l.2.93s.52,2.59.64,3.13Zm3.45-7H89a1.39,1.39,0,0,0-1.46.9l-4.15,9.91h2.93s.49-1.33.59-1.62h3.59c.08.38.33,1.62.33,1.62h2.59L91.2,6.4Z"/><path class="cls-3" d="M68.77,6.4,66,13.77l-.3-1.49a8.22,8.22,0,0,0-3.86-4.53l2.51,9.45h3l4.4-10.8Z"/><path class="cls-4" d="M63.49,6.4H59l0,.22a9.34,9.34,0,0,1,6.78,5.66l-1-5a1.16,1.16,0,0,0-1.27-.91Z"/><polygon class="cls-5" points="98.94 0.11 136.4 0.11 136.4 23.47 98.94 23.47 98.94 0.11 98.94 0.11"/><path class="cls-3" d="M136.39,18.08v5.39H99l0-23.36h1.64V16.26a1.82,1.82,0,0,0,1.8,1.82Z"/><polygon class="cls-3" points="113.13 13.98 114.78 3.73 117.44 3.73 115.78 13.98 113.13 13.98 113.13 13.98"/><path class="cls-3" d="M125.39,4A6.79,6.79,0,0,0,123,3.55c-2.62,0-4.46,1.39-4.47,3.39,0,1.47,1.32,2.29,2.32,2.78s1.37.83,1.37,1.28c0,.68-.82,1-1.59,1a5.21,5.21,0,0,1-2.49-.55l-.34-.16-.38,2.3a8,8,0,0,0,3,.55c2.78,0,4.59-1.38,4.62-3.5,0-1.17-.7-2.07-2.23-2.8-.93-.47-1.49-.78-1.49-1.26s.48-.89,1.52-.89a4.51,4.51,0,0,1,2,.4l.24.11L125.39,4Z"/><path class="cls-3" d="M129,10.37l1-2.9s.21-.6.33-1l.21.88s.56,2.44.68,3l-2.2.06Zm3.1-6.7L130,3.72a1.29,1.29,0,0,0-1.36.88l-3.7,9.5,2.78-.07s.43-1.27.52-1.55l3.4-.09c.09.36.36,1.53.36,1.53l2.45-.06-2.4-10.19Z"/><path class="cls-3" d="M110.91,3.73l-2.6,7L108,9.31A7.82,7.82,0,0,0,104.37,5l2.37,9h2.81l4.16-10.24Z"/><path class="cls-4" d="M105.9,3.73h-4.26l0,.21A8.86,8.86,0,0,1,108,9.31l-.93-4.72a1.1,1.1,0,0,0-1.2-.86Z"/><path class="cls-6" d="M114.32,22.21h1.6l.06-.43h-1.16l.13-.94h.88l.06-.43H115l.11-.84h1.13l0-.44h-1.56l-.42,3.08Zm4.24,0h1.6l.06-.43h-1.16l.13-.94h.88l.06-.43h-.88l.11-.84h1.12l.06-.44H119l-.42,3.08Zm-2.09,0h1.6l.05-.43H117l.41-2.66h-.48l-.42,3.08Zm7.67,0h.47l.34-2.63h1l.06-.44H123.7l-.06.44h.87l-.37,2.64Zm1.88,0h.47l.16-1.3h.24l.71,1.3h.47l-.69-1.3c.87-.21,1.12-1.79,0-1.78h-.93L126,22.21Zm.69-1.69h.51c.4,0,.65-1,.16-1h-.54l-.13,1ZM130.2,19c.74,0,1.25.73,1.15,1.63a1.74,1.74,0,0,1-1.53,1.63c-.74,0-1.25-.73-1.15-1.63A1.74,1.74,0,0,1,130.2,19Zm0,.37c.53,0,.9.61.83,1.26s-.58,1.27-1.11,1.27-.9-.62-.83-1.27.57-1.26,1.11-1.26Zm1.61,2.82h.47l.34-2.38,1.15,2.38h.37l.43-3.07h-.42l-.35,2.22-1.07-2.22h-.43l-.49,3.08ZM122.39,19a1.11,1.11,0,0,1,.83.37l-.23.41a.83.83,0,0,0-.65-.33,1.28,1.28,0,0,0-1.15,1.18,1,1,0,0,0,.86,1.18,1.07,1.07,0,0,0,.75-.34V22a1.4,1.4,0,0,1-.8.27,1.33,1.33,0,0,1-1.2-1.63A1.77,1.77,0,0,1,122.39,19Z"/><path class="cls-7" d="M156.05,12.26l-1.62,4.37-.18-.89A4.89,4.89,0,0,0,152,13.05l1.48,5.61h1.75l2.61-6.4Z"/><polygon class="cls-7" points="157.44 18.66 158.47 12.25 160.13 12.25 159.09 18.66 157.44 18.66 157.44 18.66"/><path class="cls-7" d="M165.1,12.41a4.13,4.13,0,0,0-1.49-.27c-1.64,0-2.79.87-2.8,2.12,0,.92.83,1.43,1.45,1.74s.86.51.86.79c0,.43-.51.63-1,.63a3.46,3.46,0,0,1-1.56-.33l-.21-.11-.23,1.44a5,5,0,0,0,1.84.34c1.74,0,2.87-.86,2.88-2.19,0-.73-.43-1.29-1.39-1.74-.57-.3-.93-.5-.92-.8s.29-.55.94-.55a2.85,2.85,0,0,1,1.24.25l.15.07.23-1.39Z"/><path class="cls-7" d="M169.34,12.26h-1.28a.83.83,0,0,0-.87.53l-2.45,5.88h1.73s.29-.79.35-1h2.12c.05.22.2,1,.2,1h1.54l-1.34-6.41Zm-2,4.13L168,14.6l.22-.61.11.55s.32,1.53.38,1.85Z"/><path class="cls-8" d="M152.92,12.26h-2.67v.11a5.56,5.56,0,0,1,4,3.37l-.58-2.94a.69.69,0,0,0-.75-.54Z"/><polygon class="cls-7" points="145.25 10.71 144.19 10.71 142.97 5.22 144.14 5.02 144.97 9.32 147.09 5.08 148.22 5.08 145.25 10.71 145.25 10.71"/><path class="cls-7" d="M150.73,8.91h-2.51c-.07.77.28,1.1.88,1.1a2.65,2.65,0,0,0,1.43-.49v.76a2.93,2.93,0,0,1-1.64.48c-1.09,0-1.82-.62-1.6-2a2.2,2.2,0,0,1,2.1-2.05c1.18,0,1.57.88,1.4,2,0,.08,0,.18-.05.23Zm-1.48-1.56c-.39,0-.75.31-.92,1h1.56c0-.61-.17-1-.64-1Z"/><path class="cls-7" d="M152.38,8.43,152,10.68h-1l.6-3.92h.83v.79a1.84,1.84,0,0,1,1.39-.87v1a2.15,2.15,0,0,0-1.51.78Z"/><path class="cls-7" d="M153.87,10.68l.61-3.92h1l-.6,3.92Zm1.2-4.58a.46.46,0,0,1-.5-.55.69.69,0,0,1,.68-.57.47.47,0,0,1,.48.57.66.66,0,0,1-.66.55Z"/><path class="cls-7" d="M158.15,5.69a.53.53,0,0,0-.59.49l-.09.58h.75v.8h-.87l-.48,3.12h-1l.48-3.12h-.56l.12-.8h.57l.1-.67a1.36,1.36,0,0,1,1.54-1.2,3.1,3.1,0,0,1,.39,0v.8a2.1,2.1,0,0,0-.4,0Z"/><path class="cls-7" d="M158.16,10.68l.6-3.92h1l-.61,3.92Zm1.2-4.58a.46.46,0,0,1-.5-.55.68.68,0,0,1,.67-.57.47.47,0,0,1,.49.57.66.66,0,0,1-.66.55Z"/><path class="cls-7" d="M163.52,8.91H161c-.07.77.28,1.1.89,1.1a2.64,2.64,0,0,0,1.42-.49v.76a3,3,0,0,1-1.65.48c-1.09,0-1.82-.62-1.6-2a2.2,2.2,0,0,1,2.1-2.05c1.18,0,1.57.88,1.4,2,0,.08,0,.18,0,.23ZM162,7.35c-.39,0-.75.31-.92,1h1.56c0-.61-.16-1-.64-1Z"/><path class="cls-7" d="M166.4,10.68v-.54a1.85,1.85,0,0,1-1.3.62c-.82,0-1.39-.61-1.18-1.93s1.13-2.11,2-2.11a2.32,2.32,0,0,1,.88.15l.29-1.9,1-.15-.9,5.86Zm.33-3A1.5,1.5,0,0,0,166,7.5c-.51,0-1,.41-1.08,1.27s.15,1.12.58,1.12a1.41,1.41,0,0,0,1-.53l.26-1.69Z"/><path class="cls-7" d="M170.22,10.72a3.28,3.28,0,0,1-1.18-.2l.64-4.16.75-.12L170.16,8a1.39,1.39,0,0,1,.9-.39c.63,0,1.05.47.89,1.46a1.67,1.67,0,0,1-1.73,1.61Zm.55-2.42a1.09,1.09,0,0,0-.71.39L169.85,10a1.22,1.22,0,0,0,.46.08c.46,0,.79-.29.89-1s-.1-.86-.43-.86Z"/><path class="cls-7" d="M173.69,10.84c-.37.73-.75,1-1.32,1a.91.91,0,0,1-.27,0v-.61a1.06,1.06,0,0,0,.34.05.6.6,0,0,0,.53-.32l.09-.2-.62-2.92.78-.1.37,2.11,1-2.07h.73l-1.61,3.13Z"/><rect class="cls-9" x="227.26" y="2.42" width="29.62" height="18.74"/><path class="cls-10" d="M243.85,8.09l-.06-.1-.41-.08.2-.28,0-.07a7.61,7.61,0,1,0,.31.53Z"/><path class="cls-11" d="M247.52,3.68a8.11,8.11,0,0,0-5.45,2.1,8.11,8.11,0,0,1,1.47,1.78l0,.07-.2.28.41.08.06.1a8.11,8.11,0,0,1-1.78,9.71,8.11,8.11,0,1,0,5.45-14.12Z"/><path class="cls-9" d="M233.42,11h1l-.78,4.11h-1Z"/><path class="cls-9" d="M230.42,11H233l-.15.78h-1.6l-.16.85h1.54l-.14.77H231l-.17.94h1.59l-.14.77h-2.6Z"/><path class="cls-9" d="M236.83,15a3.6,3.6,0,0,1-1,.13c-1.06,0-1.61-.52-1.61-1.51a1.8,1.8,0,0,1,1.65-2,1.18,1.18,0,0,1,1.3,1.22,3.52,3.52,0,0,1-.12.83h-1.9a.49.49,0,0,0,0,.11c0,.39.28.59.83.59a2.37,2.37,0,0,0,1-.22Zm-.5-2v-.17a.4.4,0,0,0-.45-.43c-.3,0-.51.21-.6.6Z"/><path class="cls-9" d="M246.41,13.14c0,.76-.29,1.21-.75,1.21s-.54-.3-.54-.75.3-1.14.78-1.14S246.41,12.79,246.41,13.14Zm1,0A1.41,1.41,0,0,0,246,11.64a1.81,1.81,0,0,0-1.85,2,1.38,1.38,0,0,0,1.49,1.53A1.75,1.75,0,0,0,247.44,13.15Z"/><path class="cls-9" d="M247.84,12.6c0-.29.1-.57.13-.87h.93l-.09.54h0a1.32,1.32,0,0,1,1.11-.62c.58,0,.89.51.88,1.17a3.51,3.51,0,0,1-.09.7l-.29,1.56h-1l.29-1.57a2.85,2.85,0,0,0,.07-.51.35.35,0,0,0-.38-.39c-.42,0-.67.43-.75.93l-.29,1.54h-1Z"/><path class="cls-9" d="M251.43,11.73h1l-.63,3.35h-1Z"/><path class="cls-9" d="M239.55,15a2.23,2.23,0,0,1-.84.13,1.4,1.4,0,0,1-1.36-1.54,1.87,1.87,0,0,1,1.85-2,2.35,2.35,0,0,1,.9.23l-.18.82a1.36,1.36,0,0,0-.67-.19c-.51,0-.88.38-.88,1.08a.69.69,0,0,0,.69.73,1.43,1.43,0,0,0,.64-.15Z"/><path class="cls-9" d="M254.59,15a2.25,2.25,0,0,1-.85.13,1.4,1.4,0,0,1-1.35-1.54,1.87,1.87,0,0,1,1.85-2,2.35,2.35,0,0,1,.9.23l-.18.82a1.36,1.36,0,0,0-.67-.19c-.51,0-.88.38-.88,1.08a.69.69,0,0,0,.68.73,1.37,1.37,0,0,0,.64-.15Z"/><path class="cls-9" d="M242.41,11.73c-.13,1-.36,2.09-.53,3.13l0,.22h1c.36-2,.48-2.58,1.25-2.38l.36-.95c-.53-.19-.87.09-1.18.48a2.4,2.4,0,0,0,.07-.5Z"/><path class="cls-9" d="M241.66,14.33c-.42.06-.61-.05-.61-.28a3.18,3.18,0,0,1,.09-.58l.17-.93h.52l.15-.81h-.52l.15-.81h-1l-.48,2.56a4,4,0,0,0-.08.69.88.88,0,0,0,.92,1,3.29,3.29,0,0,0,.54-.05Z"/><path class="cls-9" d="M236.83,9.06l-.15,0c-.38,0-.56.13-.56.39a.23.23,0,0,0,.23.25C236.62,9.68,236.81,9.43,236.83,9.06Zm.48,1.11h-.55V9.91a.82.82,0,0,1-.69.31.62.62,0,0,1-.6-.69c0-.61.42-1,1.16-1l.26,0a.61.61,0,0,0,0-.16c0-.17-.11-.23-.42-.23a2.1,2.1,0,0,0-.7.12c0-.05.09-.57.09-.57a2.53,2.53,0,0,1,.79-.13c.57,0,.87.25.87.73a2.76,2.76,0,0,1-.06.5C237.45,9.2,237.32,10,237.31,10.17Z"/><polygon class="cls-9" points="235.2 10.17 234.54 10.17 234.92 7.8 234.07 10.17 233.63 10.17 233.57 7.82 233.17 10.17 232.55 10.17 233.07 7.09 234.02 7.09 234.08 8.81 234.66 7.09 235.71 7.09 235.2 10.17"/><path class="cls-9" d="M247.22,9.06l-.14,0q-.57,0-.57.39a.23.23,0,0,0,.24.25C247,9.68,247.21,9.43,247.22,9.06Zm.48,1.11h-.54V9.91a.82.82,0,0,1-.69.31.62.62,0,0,1-.61-.69c0-.61.43-1,1.16-1l.27,0a.61.61,0,0,0,0-.16c0-.17-.12-.23-.43-.23a2.16,2.16,0,0,0-.7.12l.1-.57a2.49,2.49,0,0,1,.79-.13c.56,0,.86.25.86.73a3.79,3.79,0,0,1,0,.5C247.84,9.2,247.72,10,247.7,10.17Z"/><path class="cls-9" d="M240.24,10.13a1.45,1.45,0,0,1-.48.09.49.49,0,0,1-.52-.56c0-.11,0-.4.09-.66l.29-1.71h.66l-.08.37h.4l-.09.61h-.4c-.08.47-.19,1.07-.19,1.15s.07.18.23.18a.5.5,0,0,0,.18,0Z"/><path class="cls-9" d="M242.25,10.11a2.24,2.24,0,0,1-.67.11,1,1,0,0,1-1.12-1.12c0-.86.49-1.49,1.15-1.49a.83.83,0,0,1,.88.91,2.49,2.49,0,0,1-.08.61h-1.3c-.05.37.19.52.57.52a1.57,1.57,0,0,0,.68-.16Zm-.37-1.48c0-.05.07-.45-.3-.45-.21,0-.36.16-.42.45Z"/><path class="cls-9" d="M237.7,8.46a.75.75,0,0,0,.5.7c.27.12.31.16.31.27s-.12.23-.38.23a1.83,1.83,0,0,1-.59-.1s-.08.56-.09.58a3.87,3.87,0,0,0,.69.08c.69,0,1-.27,1-.84a.69.69,0,0,0-.47-.7c-.28-.13-.31-.16-.31-.27s.11-.21.33-.21a4.47,4.47,0,0,1,.47,0l.09-.58a4,4,0,0,0-.58,0C238,7.61,237.7,8,237.7,8.46Z"/><path class="cls-9" d="M245.46,7.68a1.25,1.25,0,0,1,.59.16l.11-.67a1.94,1.94,0,0,0-.73-.26,1.33,1.33,0,0,0-1.08.58c-.38-.12-.54.13-.73.39l-.17,0a2.28,2.28,0,0,0,0-.26h-.61c-.08.78-.23,1.57-.34,2.34l0,.17h.66c.11-.71.17-1.17.21-1.48l.25-.14c0-.14.15-.19.38-.18a2.85,2.85,0,0,0,0,.51c0,.83.44,1.34,1.15,1.34a2.28,2.28,0,0,0,.58-.09l.12-.71a1.27,1.27,0,0,1-.56.16c-.39,0-.62-.28-.62-.75C244.62,8.15,245,7.68,245.46,7.68Z"/><path class="cls-9" d="M251.05,7.09,250.9,8a.81.81,0,0,0-.63-.41,1,1,0,0,0-.83.62,4.4,4.4,0,0,1-.57-.15h0a1.6,1.6,0,0,0,0-.38h-.6c-.09.78-.23,1.57-.35,2.34l0,.17h.66q.13-.87.21-1.44c.23-.2.34-.38.57-.37a2.22,2.22,0,0,0-.16.82c0,.62.31,1,.79,1a.78.78,0,0,0,.61-.28l0,.23h.63l.5-3.08Zm-.83,2.5c-.22,0-.34-.16-.34-.49,0-.49.22-.84.52-.84s.35.17.35.49C250.75,9.24,250.53,9.59,250.22,9.59Z"/><polygon class="cls-2" points="235.39 9.99 234.73 9.99 235.11 7.62 234.26 9.99 233.81 9.99 233.76 7.63 233.36 9.99 232.74 9.99 233.26 6.91 234.21 6.91 234.24 8.81 234.88 6.91 235.9 6.91 235.39 9.99"/><path class="cls-2" d="M237,8.87h-.15c-.38,0-.57.13-.57.38a.24.24,0,0,0,.24.26C236.81,9.5,237,9.24,237,8.87ZM237.5,10H237V9.73a.82.82,0,0,1-.69.3.61.61,0,0,1-.6-.68c0-.61.42-1,1.16-1l.26,0a.69.69,0,0,0,0-.16c0-.17-.11-.23-.42-.23a2.5,2.5,0,0,0-.7.11s.09-.56.09-.56a2.53,2.53,0,0,1,.79-.13c.57,0,.87.25.87.73a2.76,2.76,0,0,1-.06.5C237.64,9,237.51,9.8,237.5,10Z"/><path class="cls-2" d="M246.35,7l-.11.67a1.28,1.28,0,0,0-.59-.17c-.49,0-.84.48-.84,1.16,0,.47.23.75.62.75a1.27,1.27,0,0,0,.56-.16l-.12.7a1.91,1.91,0,0,1-.58.09c-.71,0-1.15-.51-1.15-1.33,0-1.1.61-1.87,1.48-1.87A2.28,2.28,0,0,1,246.35,7Z"/><path class="cls-2" d="M247.41,8.87h-.14c-.38,0-.57.13-.57.38a.23.23,0,0,0,.24.26C247.21,9.5,247.4,9.24,247.41,8.87Zm.48,1.12h-.54V9.73a.82.82,0,0,1-.69.3.62.62,0,0,1-.61-.68c0-.61.43-1,1.16-1l.27,0a.69.69,0,0,0,0-.16c0-.17-.12-.23-.43-.23a2.58,2.58,0,0,0-.7.11s.1-.56.1-.56a2.49,2.49,0,0,1,.79-.13c.56,0,.86.25.86.73a3.79,3.79,0,0,1,0,.5C248,9,247.91,9.8,247.89,10Z"/><path class="cls-2" d="M240.43,10A1.42,1.42,0,0,1,240,10a.48.48,0,0,1-.52-.55c0-.11,0-.4.09-.67l.29-1.71h.66l-.08.38h.34l-.09.6h-.34c-.08.48-.19,1.08-.19,1.15s.07.19.23.19l.18,0Z"/><path class="cls-2" d="M242.44,9.93a2.22,2.22,0,0,1-.67.1,1,1,0,0,1-1.12-1.12c0-.85.49-1.48,1.15-1.48a.83.83,0,0,1,.88.9,2.51,2.51,0,0,1-.08.62h-1.3c-.05.36.19.52.57.52a1.57,1.57,0,0,0,.68-.16Zm-.37-1.49s.07-.44-.3-.44c-.21,0-.36.16-.42.44Z"/><path class="cls-2" d="M237.89,8.27a.73.73,0,0,0,.5.7c.27.13.31.17.31.28s-.12.23-.38.23a1.83,1.83,0,0,1-.59-.1s-.08.55-.09.58a3.31,3.31,0,0,0,.69.07c.69,0,1-.26,1-.84a.68.68,0,0,0-.47-.69c-.28-.13-.31-.16-.31-.28s.11-.2.33-.2a2.79,2.79,0,0,1,.47,0l.09-.59c-.17,0-.43,0-.58,0C238.14,7.43,237.89,7.81,237.89,8.27Z"/><path class="cls-2" d="M251.39,10h-.63l0-.23a.77.77,0,0,1-.61.27c-.48,0-.79-.41-.79-1,0-.83.49-1.53,1.07-1.53a.73.73,0,0,1,.63.34l.15-.89h.65Zm-1-.58c.31,0,.53-.35.53-.84,0-.32-.13-.5-.35-.5s-.52.35-.52.85C250.07,9.24,250.19,9.41,250.41,9.41Z"/><path class="cls-2" d="M248.49,7.48c-.09.78-.23,1.56-.35,2.34l0,.17h.66c.24-1.53.3-1.83.67-1.8a2,2,0,0,1,.25-.72c-.28-.06-.43.1-.64.39a1.64,1.64,0,0,0,0-.38Z"/><path class="cls-2" d="M243.05,7.48c-.08.78-.23,1.56-.34,2.34l0,.17h.66c.24-1.53.29-1.83.66-1.8a2.55,2.55,0,0,1,.25-.72c-.27-.06-.43.1-.63.39a1.64,1.64,0,0,0,0-.38Z"/><path class="cls-2" d="M251.67,9.79a.2.2,0,0,1,.4,0,.2.2,0,1,1-.4,0Zm.2.15a.15.15,0,0,0,.15-.15.15.15,0,0,0-.3,0A.15.15,0,0,0,251.87,9.94Zm0-.06h0V9.71h.12s0,0,0,0,0,0,0,0l0,.08h0l0-.07h0Zm0-.1h0v0s0,0,0,0h0Z"/><polygon class="cls-11" points="254.46 16.66 254.35 16.66 254.35 16.6 254.62 16.6 254.62 16.66 254.52 16.66 254.52 16.95 254.46 16.95 254.46 16.66"/><polygon class="cls-11" points="254.71 16.6 254.8 16.6 254.89 16.83 254.98 16.6 255.08 16.6 255.08 16.95 255.02 16.95 255.02 16.68 255.02 16.68 254.92 16.95 254.87 16.95 254.77 16.68 254.77 16.68 254.77 16.95 254.71 16.95 254.71 16.6"/><path class="cls-12" d="M191.1,23.28V21.74a.92.92,0,0,0-1-1,1,1,0,0,0-.86.44.91.91,0,0,0-.81-.44.8.8,0,0,0-.72.37v-.3h-.54v2.45h.54V21.92a.57.57,0,0,1,.6-.65c.36,0,.54.23.54.64v1.37h.53V21.92a.58.58,0,0,1,.6-.65c.37,0,.54.23.54.64v1.37Zm8-2.45h-.87v-.75h-.54v.75h-.5v.48h.5v1.12c0,.57.22.91.85.91a1.25,1.25,0,0,0,.67-.19l-.15-.46a1,1,0,0,1-.48.14c-.26,0-.35-.16-.35-.41V21.31h.87Zm4.55-.07a.74.74,0,0,0-.65.36v-.29h-.52v2.45H203V21.9c0-.4.17-.63.52-.63a1.06,1.06,0,0,1,.34.06l.16-.5a1.06,1.06,0,0,0-.38-.07m-6.88.26a1.81,1.81,0,0,0-1-.26c-.62,0-1,.3-1,.79s.3.64.85.72l.25,0c.29,0,.43.12.43.25s-.19.3-.56.3a1.28,1.28,0,0,1-.81-.26l-.26.42a1.78,1.78,0,0,0,1.07.32c.7,0,1.11-.33,1.11-.8s-.32-.66-.85-.73l-.25,0c-.23,0-.42-.08-.42-.24s.18-.29.47-.29a1.6,1.6,0,0,1,.76.21ZM211,20.76a.74.74,0,0,0-.65.36v-.29h-.52v2.45h.53V21.9c0-.4.17-.63.52-.63a1.06,1.06,0,0,1,.34.06l.16-.5a1.06,1.06,0,0,0-.38-.07m-6.87,1.29a1.24,1.24,0,0,0,1.31,1.29,1.28,1.28,0,0,0,.88-.29l-.26-.44a1,1,0,0,1-.64.23.74.74,0,0,1-.74-.79.73.73,0,0,1,.74-.78,1,1,0,0,1,.64.22l.26-.43a1.29,1.29,0,0,0-.88-.3,1.24,1.24,0,0,0-1.31,1.29m5,0V20.83h-.53v.29a.94.94,0,0,0-.77-.36,1.29,1.29,0,0,0,0,2.58.94.94,0,0,0,.77-.36v.3h.53Zm-2,0a.74.74,0,1,1,1.48,0,.74.74,0,1,1-1.48,0m-6.44-1.29a1.2,1.2,0,0,0-1.22,1.29,1.22,1.22,0,0,0,1.26,1.29,1.43,1.43,0,0,0,1-.35l-.26-.39a1.17,1.17,0,0,1-.71.26.68.68,0,0,1-.73-.6h1.82c0-.07,0-.14,0-.21a1.19,1.19,0,0,0-1.17-1.29m0,.48a.6.6,0,0,1,.62.6h-1.27a.63.63,0,0,1,.65-.6m13.38.81V19.84h-.53v1.28a.94.94,0,0,0-.78-.36,1.29,1.29,0,0,0,0,2.58.94.94,0,0,0,.78-.36v.3h.53Zm-2,0a.74.74,0,1,1,1.48,0,.74.74,0,1,1-1.48,0m-18,0V20.83h-.54v.29a.92.92,0,0,0-.77-.36,1.29,1.29,0,0,0,0,2.58.92.92,0,0,0,.77-.36v.3h.54Zm-2,0a.73.73,0,0,1,.75-.78.72.72,0,0,1,.73.78.73.73,0,0,1-.73.79.74.74,0,0,1-.75-.79m22.87.87.1,0,.08,0a.22.22,0,0,1,.05.08.3.3,0,0,1,0,.1.29.29,0,0,1,0,.09.35.35,0,0,1-.05.08l-.08.05-.1,0-.1,0-.08-.05a.35.35,0,0,1-.05-.08.29.29,0,0,1,0-.09.3.3,0,0,1,0-.1.22.22,0,0,1,.05-.08l.08,0,.1,0m0,.43h.07a.09.09,0,0,0,.06,0l0-.06a.19.19,0,0,0,0-.07.19.19,0,0,0,0-.08l0-.06a.09.09,0,0,0-.06,0h-.14a.09.09,0,0,0-.06,0,.21.21,0,0,0,0,.06.19.19,0,0,0,0,.08.19.19,0,0,0,0,.07.21.21,0,0,0,0,.06.09.09,0,0,0,.06,0H215m0-.3.06,0a.05.05,0,0,1,0,.05.08.08,0,0,1,0,.05.08.08,0,0,1-.06,0l.08.09H215l-.07-.09h0v.09h0v-.23Zm-.06,0v.06H215v0s0,0,0,0H215Z"/><rect class="cls-13" x="196.57" y="2.14" width="8.08" height="14.52"/><path class="cls-14" d="M197.08,9.4a9.24,9.24,0,0,1,3.52-7.26,9.23,9.23,0,1,0,0,14.52,9.23,9.23,0,0,1-3.52-7.26"/><path class="cls-15" d="M215.54,9.4a9.23,9.23,0,0,1-14.93,7.26,9.25,9.25,0,0,0,0-14.52A9.23,9.23,0,0,1,215.54,9.4m-.88,5.72v-.29h.12v-.06h-.3v.06h.12v.29Zm.59,0v-.36h-.09l-.11.25-.1-.25h-.1v.36h.07v-.27l.1.24h.07l.1-.24v.27Z"/><polygon class="cls-16" points="268.73 21.16 298.35 21.16 298.35 2.42 268.73 2.42 268.73 21.16 268.73 21.16"/><path class="cls-17" d="M283.53,17.76a8.14,8.14,0,1,0-5.46,2.1,8.09,8.09,0,0,0,5.46-2.1Z"/><path class="cls-17" d="M283.53,17.76a8.16,8.16,0,0,0,0-12.07V17.76Z"/><path class="cls-18" d="M289,3.59a8.11,8.11,0,0,0-5.46,2.1,11.1,11.1,0,0,0-.82.86h1.64c.23.27.43.58.63.86h-2.89c-.17.29-.33.58-.48.86h3.83c.13.29.25.58.35.86h-4.51A6.74,6.74,0,0,0,281,10h5a8.72,8.72,0,0,1,.17,1.72,8.26,8.26,0,0,1-.41,2.59h-4.51a8.38,8.38,0,0,0,.33.86h3.83c-.14.28-.29.59-.46.86h-2.89a9,9,0,0,0,.62.86h1.64a8.28,8.28,0,0,1-.82.86A8.14,8.14,0,1,0,289,3.59Z"/><path class="cls-18" d="M296.09,16.26a.26.26,0,0,1,.51,0,.26.26,0,1,1-.51,0Zm.25.21a.22.22,0,0,0,.21-.21.2.2,0,0,0-.21-.19.19.19,0,0,0-.2.19.21.21,0,0,0,.2.21Zm0-.1h-.06v-.22h.09s.05,0,.07,0,0,0,0,0,0,.05,0,.07l0,.09h-.06l0-.08h0v.08Zm0-.12h.07a.1.1,0,0,0,0,0h0a.06.06,0,0,0,0,0h0v.07Z"/><polygon class="cls-16" points="276.8 14 275.78 14 276.38 10.82 275 14 274.13 14 273.96 10.84 273.29 14 272.37 14 273.15 9.87 274.76 9.87 274.77 12.42 275.89 9.87 277.6 9.87 276.8 14 276.8 14"/><path class="cls-16" d="M288.12,14a2.6,2.6,0,0,1-.74.11c-.51,0-.79-.25-.79-.73a1.63,1.63,0,0,1,0-.31l.06-.33.05-.26.46-2.56h1l-.15.76h.51l-.12.82h-.53l-.27,1.4c0,.06,0,.11,0,.14,0,.18.11.24.35.24a.67.67,0,0,0,.27,0l-.12.75Z"/><path class="cls-16" d="M284.1,11.7c0,.42.24.72.76.93s.5.22.5.38-.19.3-.59.3a3.44,3.44,0,0,1-.93-.14l-.14.78h.05l.19,0a.87.87,0,0,0,.27,0l.56,0c1.08,0,1.58-.36,1.58-1.12,0-.46-.21-.73-.72-.94s-.48-.21-.48-.37.18-.27.5-.27.47,0,.75.05l.14-.77a7.48,7.48,0,0,0-.91-.08c-1.15,0-1.55.53-1.53,1.15Z"/><path class="cls-16" d="M280.08,14h-.84v-.35a1.37,1.37,0,0,1-1.07.4.87.87,0,0,1-.92-.91c0-.82.65-1.29,1.79-1.29h.41a.68.68,0,0,0,0-.21c0-.22-.17-.32-.65-.32a4,4,0,0,0-.83.1l-.14.05h-.1l.14-.74a4,4,0,0,1,1.22-.2c.87,0,1.33.35,1.33,1a2.75,2.75,0,0,1-.09.67l-.21,1.18,0,.22,0,.18,0,.11V14Zm-.68-1.5-.24,0c-.58,0-.86.18-.86.51a.33.33,0,0,0,.36.34.77.77,0,0,0,.74-.83Z"/><path class="cls-16" d="M283.4,13.92a4,4,0,0,1-1,.14c-1.13,0-1.72-.52-1.72-1.51a1.84,1.84,0,0,1,1.77-2,1.22,1.22,0,0,1,1.37,1.22,2.66,2.66,0,0,1-.13.82h-2a.62.62,0,0,0,0,.12c0,.38.3.59.89.59a2.46,2.46,0,0,0,1.05-.23l-.17.85Zm-.48-2v-.17c0-.27-.18-.43-.48-.43a.67.67,0,0,0-.65.6Z"/><path class="cls-16" d="M294.21,12.47a1.78,1.78,0,0,1-2,1.61,1.44,1.44,0,0,1-1.61-1.55,1.88,1.88,0,0,1,2-2,1.47,1.47,0,0,1,1.61,1.51,1.89,1.89,0,0,1,0,.42Zm-1-.4c0-.35-.15-.69-.56-.69s-.85.62-.85,1.15.23.77.59.77a1,1,0,0,0,.78-.83,2.35,2.35,0,0,0,0-.4Z"/><path class="cls-6" d="M294.32,13.49a.27.27,0,0,1,.27-.26.25.25,0,0,1,.25.26.27.27,0,0,1-.25.27.28.28,0,0,1-.27-.27Zm.27.2a.19.19,0,0,0,.19-.2.18.18,0,0,0-.19-.19.2.2,0,0,0-.21.19.21.21,0,0,0,.21.2Zm0-.09h-.07v-.22h.16s0,0,0,0a.06.06,0,0,1-.05.06l.05.1h-.07l0-.08h0v.08Zm0-.13h.06v-.05h-.06v.05Z"/><polygon class="cls-6" points="277.05 13.76 276.03 13.76 276.64 10.59 275.25 13.76 274.33 13.76 274.17 10.6 273.56 13.76 272.64 13.76 273.42 9.63 275.01 9.63 275.09 12.18 276.21 9.63 277.85 9.63 277.05 13.76 277.05 13.76"/><path class="cls-6" d="M288.37,13.71a2.49,2.49,0,0,1-.73.11c-.51,0-.8-.25-.8-.73,0-.1,0-.19,0-.3l.07-.34,0-.25.47-2.57h1l-.14.76h.52l-.14.82h-.53l-.25,1.4a.5.5,0,0,0,0,.14c0,.18.11.26.35.26a1.57,1.57,0,0,0,.27,0l-.13.73Z"/><path class="cls-16" d="M291,11.37l0-.11.2-.53s-.07,0-.08,0h-.18c-.33,0-.57.14-.89.54l.11-.61h-1.05L288.44,14h1c.14-.78.21-1.21.29-1.58.12-.61.57-.88.91-.81h.11l.06,0,.16-.28Z"/><path class="cls-6" d="M291.32,10.43c-.08,0-.09,0-.11,0s-.08,0-.08,0H291a1.06,1.06,0,0,0-.88.54l.1-.51h-.93l-.62,3.37h1c.37-2.06.51-2.43,1-2.43l.12,0,.11,0,.37-1Z"/><path class="cls-6" d="M284.35,11.46c0,.42.24.72.79.93s.47.22.47.38-.19.3-.59.3a3.43,3.43,0,0,1-.92-.14l-.13.78h0l.17,0h.28a3.25,3.25,0,0,0,.57,0c1.07,0,1.58-.35,1.58-1.12,0-.46-.21-.73-.74-.94s-.47-.21-.47-.37.17-.27.51-.27a6.89,6.89,0,0,1,.73.05l.14-.77a7.25,7.25,0,0,0-.89-.06c-1.15,0-1.55.51-1.55,1.13Z"/><path class="cls-6" d="M280.34,13.76h-.83v-.35a1.37,1.37,0,0,1-1.06.4.88.88,0,0,1-.93-.91c0-.82.65-1.29,1.79-1.29h.41a.68.68,0,0,0,0-.21c0-.22-.17-.3-.65-.3a4.1,4.1,0,0,0-.83.08l-.14.05-.1,0,.14-.75a4.55,4.55,0,0,1,1.22-.18c.87,0,1.32.34,1.32,1a3.81,3.81,0,0,1-.08.67l-.21,1.2,0,.21,0,.17,0,.11v.1Zm-.74-1.5-.22,0c-.57,0-.86.18-.86.51a.33.33,0,0,0,.35.35.78.78,0,0,0,.73-.84Z"/><path class="cls-6" d="M283.67,13.68a4.13,4.13,0,0,1-1,.14c-1.13,0-1.72-.52-1.72-1.51a1.84,1.84,0,0,1,1.77-2A1.21,1.21,0,0,1,284,11.53a3.52,3.52,0,0,1-.12.83h-2v.11c0,.38.29.59.88.59a2.77,2.77,0,0,0,1.05-.21l-.16.83Zm-.54-2v-.18c0-.27-.18-.43-.48-.43s-.54.22-.64.61Z"/><path class="cls-6" d="M294.48,12.23a1.8,1.8,0,0,1-2,1.61,1.43,1.43,0,0,1-1.59-1.55,1.88,1.88,0,0,1,2-2,1.47,1.47,0,0,1,1.61,1.51,1.89,1.89,0,0,1,0,.42Zm-1.05-.43c0-.35-.15-.67-.56-.67s-.83.6-.83,1.15.22.74.57.74a1,1,0,0,0,.78-.81,1.39,1.39,0,0,0,0-.41Z"/><path class="cls-19" d="M339.5,10.54a.63.63,0,0,1,.61-.64.64.64,0,1,1-.61.64Zm.61.5a.47.47,0,0,0,.46-.49.48.48,0,0,0-.46-.49.49.49,0,0,0,0,1Zm-.08-.21h-.13v-.57h.23a.24.24,0,0,1,.14,0,.18.18,0,0,1,.06.14.13.13,0,0,1-.09.14l.1.25h-.14l-.08-.22H340v.23Zm0-.32h.14a.08.08,0,0,0,0-.07.07.07,0,0,0,0-.06H340v.13Z"/><path class="cls-19" d="M330.74,6.27l-.17,1.09a1.9,1.9,0,0,0-.92-.27c-.76,0-1.3.78-1.3,1.89,0,.76.36,1.22,1,1.22a1.88,1.88,0,0,0,.87-.26L330,11.09a3,3,0,0,1-.91.15c-1.1,0-1.79-.84-1.79-2.17,0-1.8.95-3.06,2.31-3.06a2.12,2.12,0,0,1,.47,0l.42.11.24.1Z"/><path class="cls-19" d="M327.33,7h-.1c-.33,0-.53.18-.84.67l.09-.62h-.93l-.63,4.08h1c.37-2.5.46-2.93,1-2.93H327A3.8,3.8,0,0,1,327.37,7Z"/><path class="cls-19" d="M321.2,11.09a2.29,2.29,0,0,1-.73.14c-.52,0-.81-.32-.81-.9a2.51,2.51,0,0,1,0-.37l.07-.4,0-.33.45-2.79h1l-.12.61h.53l-.15,1H321l-.27,1.7c0,.08,0,.13,0,.17,0,.21.11.31.35.31a.72.72,0,0,0,.28,0l-.15.91Z"/><path class="cls-19" d="M317.16,8.34a1.2,1.2,0,0,0,.78,1.15c.41.2.48.26.48.45s-.18.37-.58.37a2.57,2.57,0,0,1-.92-.17l-.14.95h.05l.18,0,.27,0,.57,0c1.07,0,1.57-.44,1.57-1.36a1.11,1.11,0,0,0-.72-1.14c-.43-.21-.47-.25-.47-.45s.16-.33.5-.33a7.13,7.13,0,0,1,.73.06l.15-.94a6,6,0,0,0-.9-.09c-1.16,0-1.56.62-1.55,1.38Z"/><path class="cls-19" d="M338.9,11.14h-1l.05-.4a1.21,1.21,0,0,1-1,.45c-.75,0-1.24-.68-1.24-1.7,0-1.36.76-2.51,1.67-2.51a1.17,1.17,0,0,1,1,.56l.22-1.44h1l-.77,5Zm-1.51-1c.48,0,.82-.57.82-1.38,0-.52-.2-.81-.55-.81s-.8.58-.8,1.37c0,.54.18.82.53.82Z"/><path class="cls-19" d="M324.45,11.05a3.46,3.46,0,0,1-1.06.17c-1.14,0-1.74-.63-1.74-1.84,0-1.41.76-2.44,1.79-2.44a1.35,1.35,0,0,1,1.38,1.5,4.72,4.72,0,0,1-.13,1h-2a.66.66,0,0,0,0,.13c0,.48.31.72.9.72a2.37,2.37,0,0,0,1.07-.26l-.16,1Zm-.58-2.44a1.56,1.56,0,0,0,0-.2c0-.33-.17-.53-.48-.53s-.56.26-.65.73Z"/><polygon class="cls-19" points="313.04 11.14 312.02 11.14 312.61 7.27 311.29 11.14 310.6 11.14 310.51 7.3 309.89 11.14 308.94 11.14 309.73 6.11 311.21 6.11 311.25 9.23 312.25 6.11 313.84 6.11 313.04 11.14 313.04 11.14"/><path class="cls-19" d="M315.69,9.32l-.24,0c-.58,0-.87.21-.87.62a.38.38,0,0,0,.37.42c.41,0,.72-.42.74-1Zm.74,1.82h-.85v-.43a1.24,1.24,0,0,1-1.07.49,1,1,0,0,1-.94-1.11c0-1,.67-1.58,1.8-1.58l.42,0a1.07,1.07,0,0,0,0-.27c0-.27-.17-.37-.65-.37a3.31,3.31,0,0,0-.86.12l-.13.05-.09,0,.14-.91A3.9,3.9,0,0,1,315.46,7c.88,0,1.35.42,1.35,1.2a5.31,5.31,0,0,1-.09.82l-.2,1.45,0,.26,0,.21,0,.14v.11Z"/><path class="cls-19" d="M332.51,9.32l-.24,0c-.58,0-.88.21-.88.62a.38.38,0,0,0,.37.42c.42,0,.73-.42.75-1Zm.74,1.82h-.85v-.43a1.24,1.24,0,0,1-1.07.49,1,1,0,0,1-.94-1.11c0-1,.67-1.58,1.8-1.58l.42,0a1.07,1.07,0,0,0,0-.27c0-.27-.17-.37-.65-.37a3.31,3.31,0,0,0-.86.12l-.15,0-.09,0,.14-.92a3.9,3.9,0,0,1,1.23-.23c.88,0,1.34.42,1.34,1.2a6.34,6.34,0,0,1-.08.82l-.22,1.44,0,.26,0,.21,0,.14v.13Z"/><path class="cls-19" d="M336.11,7H336c-.33,0-.53.18-.84.67l.09-.62h-.93l-.63,4.08h1c.37-2.5.47-2.93,1-2.93h.07A4.08,4.08,0,0,1,336.15,7Z"/><path class="cls-20" d="M331.81,15.11c0,.93-.29,1.48-.74,1.48s-.53-.36-.53-.91.3-1.39.76-1.39.51.4.51.82Zm1,0c0-1-.51-1.83-1.46-1.83-1.11,0-1.82,1-1.82,2.41,0,1,.43,1.87,1.46,1.87s1.82-.74,1.82-2.45Z"/><path class="cls-20" d="M329.86,12.57l-.15,1.1a1.63,1.63,0,0,0-.86-.27c-.71,0-1.21.78-1.21,1.88,0,.76.33,1.22.89,1.22a1.62,1.62,0,0,0,.81-.26l-.16,1.15a2.43,2.43,0,0,1-.86.15c-1,0-1.67-.83-1.67-2.17,0-1.8.89-3.06,2.16-3.06a1.33,1.33,0,0,1,.42.06l.39.11.24.09Z"/><path class="cls-20" d="M323.53,13.31h-.1c-.32,0-.49.17-.79.66l.09-.62h-.86l-.58,4.09h.95c.35-2.5.44-2.93.89-2.93h.08a4.29,4.29,0,0,1,.36-1.19l0,0Z"/><path class="cls-20" d="M336,17.4h-.91l.05-.4a1.09,1.09,0,0,1-.89.46c-.7,0-1.16-.68-1.16-1.7,0-1.36.71-2.51,1.56-2.51a1.06,1.06,0,0,1,.91.57l.22-1.44h.94l-.72,5Zm-1.42-1c.46,0,.76-.57.76-1.38,0-.52-.17-.8-.51-.8s-.74.57-.74,1.37c0,.54.17.81.49.81Z"/><path class="cls-20" d="M314.56,17.39a3,3,0,0,1-1,.16c-1.06,0-1.62-.63-1.62-1.83,0-1.4.71-2.44,1.67-2.44.79,0,1.29.57,1.29,1.49a5.25,5.25,0,0,1-.12,1h-1.9a.72.72,0,0,0,0,.13c0,.47.28.71.84.71a2.14,2.14,0,0,0,1-.25l-.15,1ZM314,15c0-.09,0-.16,0-.21,0-.33-.17-.53-.46-.53s-.52.26-.61.74Z"/><path class="cls-20" d="M325.94,17.39a3,3,0,0,1-1,.16c-1.08,0-1.63-.63-1.63-1.83,0-1.4.71-2.44,1.67-2.44.78,0,1.29.57,1.29,1.49a4.56,4.56,0,0,1-.12,1h-1.9a.72.72,0,0,0,0,.13c0,.47.29.71.85.71a2.14,2.14,0,0,0,1-.25l-.16,1ZM325.4,15a1.79,1.79,0,0,0,0-.21c0-.33-.16-.53-.45-.53s-.52.26-.61.74Z"/><path class="cls-20" d="M339.29,17.39a3,3,0,0,1-1,.16c-1.07,0-1.63-.63-1.63-1.83,0-1.4.71-2.44,1.68-2.44.79,0,1.29.57,1.29,1.49a5.25,5.25,0,0,1-.12,1h-1.91v.13c0,.47.28.71.84.71a2.14,2.14,0,0,0,1-.25l-.16,1ZM338.76,15c0-.09,0-.16,0-.21,0-.33-.17-.53-.46-.53s-.52.26-.61.74Z"/><path class="cls-20" d="M311.72,13.5a1.38,1.38,0,0,0-.8-.23c-.39,0-.69.08-.69.49,0,.72,1.4.45,1.4,2a1.61,1.61,0,0,1-1.77,1.79,2.84,2.84,0,0,1-1.12-.27l.23-1a1.47,1.47,0,0,0,.9.3c.31,0,.77-.08.77-.61,0-.83-1.41-.52-1.41-2a1.52,1.52,0,0,1,1.63-1.71,2.08,2.08,0,0,1,1.11.23l-.25,1Z"/><path class="cls-20" d="M317.36,17.39a2.07,2.07,0,0,1-.86.15c-.83,0-1.35-.83-1.35-1.85,0-1.34.75-2.39,1.85-2.39a2.07,2.07,0,0,1,.9.26l-.21,1a1.12,1.12,0,0,0-.64-.22c-.51,0-.88.47-.88,1.3,0,.49.27.88.68.88a1.16,1.16,0,0,0,.64-.17l-.13,1.06Z"/><path class="cls-20" d="M320.93,16.36c0,.35-.09.69-.12,1.05h-.91l.07-.66h0a1.28,1.28,0,0,1-1.11.76c-.58,0-.89-.62-.89-1.4a6.48,6.48,0,0,1,.07-.86l.26-1.89h1l-.28,1.9c0,.21-.06.41-.06.62s.11.49.39.47.67-.51.74-1.12l.29-1.87h1l-.46,3Z"/><polygon class="cls-20" points="340.25 17.37 340.09 17.37 340.09 16.69 339.87 16.69 339.87 16.54 340.47 16.54 340.47 16.69 340.25 16.69 340.25 17.37 340.25 17.37"/><polygon class="cls-20" points="341.28 17.37 341.13 17.37 341.13 16.68 341.13 16.68 340.99 17.37 340.84 17.37 340.7 16.68 340.7 16.68 340.7 17.37 340.56 17.37 340.56 16.54 340.79 16.54 340.92 17.19 340.93 17.19 341.06 16.54 341.28 16.54 341.28 17.37 341.28 17.37"/></g></g></svg>