<svg xmlns="http://www.w3.org/2000/svg" viewBox="0 0 151.04 108.43"><defs><style>.cls-1{fill:#0f94d2;}.cls-2{fill:#f04f35;}.cls-3{fill:#515558;}</style></defs><title>logo</title><g id="Layer_2" data-name="Layer 2"><g id="Layer_1-2" data-name="Layer 1"><path class="cls-1" d="M57.05,83.22l0,0a7.13,7.13,0,0,0-.8,0l0-.06c0-.45,0-.81,0-1.64,0-1.09,0-2.25-.07-3.34l0,0,.77,0h.93v.58h-.26a3.53,3.53,0,0,0-.64,0v2a4.29,4.29,0,0,0,.74,0h.16v.61H57c0,.77,0,1,0,1.9m.84-1.9a1.89,1.89,0,0,0,1.5-.83,1.66,1.66,0,0,0,.23-.8,1.45,1.45,0,0,0-1-1.42,2.48,2.48,0,0,0-.7-.09v.58a.94.94,0,0,1,.83.51,1.07,1.07,0,0,1,.1.42.92.92,0,0,1-.13.51,1,1,0,0,1-.8.51Z"/><path class="cls-1" d="M62.51,83.38a2.3,2.3,0,0,1-2.31-2.6c0-1.61.86-2.66,2.34-2.66v.57a1.27,1.27,0,0,0-1.16.61,3.17,3.17,0,0,0-.32,1.41,3.26,3.26,0,0,0,.29,1.38,1.33,1.33,0,0,0,1.19.68v.61Zm0,0a2.31,2.31,0,0,0,2.31-2.63c0-1.67-.9-2.63-2.31-2.63v.57a1.29,1.29,0,0,1,1.15.61A3.21,3.21,0,0,1,64,80.71c0,1.09-.41,2.06-1.44,2.06Z"/><path class="cls-1" d="M65.55,83.25a2.26,2.26,0,0,0,.55.06c1.28,0,1.31-1,1.31-1.54V80.49c0-.67,0-.74,0-2.25l0-.06a8,8,0,0,1-.8,0l0,0c0,.93,0,1.83,0,2.76,0,1.12,0,1.19-.06,1.32a.6.6,0,0,1-.58.32,1.24,1.24,0,0,1-.38,0l-.07,0v.54Z"/><path class="cls-1" d="M70.11,78.18a7.4,7.4,0,0,1-.8,0l0,0c.07,1.09.07,2.15.07,3.24,0,.93,0,1.32,0,1.74l0,.06a7.68,7.68,0,0,1,.8,0l0,0c0-.74-.06-1.35-.06-2.73,0-1.22,0-1.8.06-2.25Z"/><path class="cls-1" d="M72.87,77.79l.9,0,.06,0c.26-.51.29-.58.55-1.06l0-.06h-.51l-.06,0c-.16.32-.23.45-.39.74-.13-.29-.19-.39-.35-.74l0,0a5.25,5.25,0,0,1-.65,0l0,.06c.13.26.35.68.51,1.06Zm.45,2.44c-.42-.19-.45-.19-.55-.25a.66.66,0,0,1-.35-.55c0-.45.38-.7,1-.7a2.28,2.28,0,0,1,1.19.32l.06,0a4.86,4.86,0,0,1,0-.64l0,0a3.47,3.47,0,0,0-1.28-.22,1.74,1.74,0,0,0-1.51.61,1.5,1.5,0,0,0-.22.76c0,.87.7,1.16,1.18,1.42l.39.16c.45.16.86.35.86.86s-.32.8-1,.8a2.17,2.17,0,0,1-1.26-.41l-.06,0c0,.26,0,.38-.06.64l0,.07a3.46,3.46,0,0,0,1.41.32c1.25,0,1.83-.74,1.83-1.54s-.67-1.22-1.19-1.45Z"/><path class="cls-1" d="M77,77.79l.86,0,0,0c.25-.51.29-.58.54-1.06l0-.06h-.51l0,0c-.16.32-.22.45-.38.74-.16-.29-.19-.39-.35-.74l0,0a4.5,4.5,0,0,1-.64,0l0,.06A8.83,8.83,0,0,1,77,77.76Zm2.15,1a3.39,3.39,0,0,1,0-.52l0-.06c-.55,0-1.09,0-1.64,0H75.72l0,0a3.38,3.38,0,0,0,0,.55l0,0H77v1.41c0,1,0,2,0,3l0,.06a6.53,6.53,0,0,1,.8,0l0,0c0-.45-.06-1.16-.06-3,0-.64,0-.73,0-1.44h1.32Z"/><path class="cls-1" d="M81.79,83.38a2.3,2.3,0,0,1-2.31-2.6c0-1.61.86-2.66,2.34-2.66v.57a1.31,1.31,0,0,0-1.16.61,3.17,3.17,0,0,0-.32,1.41,3.26,3.26,0,0,0,.29,1.38,1.33,1.33,0,0,0,1.19.68v.61Zm0,0c1.41,0,2.31-.93,2.31-2.63s-.9-2.63-2.31-2.63v.57A1.29,1.29,0,0,1,83,79.3a3.31,3.31,0,0,1,.32,1.41c0,1.09-.41,2.06-1.47,2.06Z"/><path class="cls-1" d="M87.3,83.22c0-.13.07-.2.1-.29.19-.74.45-1.45.67-2.15.13-.42.68-2.18.77-2.54l0-.06a5.24,5.24,0,0,1-.7,0l0,0c-.22.77-.41,1.51-.64,2.25l-.61,2.24-.64-2.24c-.42-1.57-.45-1.76-.58-2.25l-.06-.06a7.23,7.23,0,0,1-.84,0l0,0c0,.13.68,2.15.81,2.57.22.8.48,1.6.7,2.41l0,.06c.52,0,.55,0,1.06,0Z"/><path class="cls-1" d="M93.91,82.9v-2c0-.86,0-1.76,0-2.63l-.06-.06a4.79,4.79,0,0,1-.67,0l0,0c0,.52,0,.68.07,1.8l.06,2.37-.89-1.57c-.49-.83-1-1.73-1.45-2.6l-.1-.06a8.53,8.53,0,0,1-.89,0l-.07,0c.07,1,.07,2,.07,3,0,.67,0,1.34,0,2l0,.06a5.47,5.47,0,0,1,.67,0l.06,0a6.68,6.68,0,0,1,0-.9c0-.32,0-.61,0-.9L90.58,79l1.12,2c.42.74.83,1.51,1.25,2.25l.06.06c.45,0,.45,0,.9,0l0,0Z"/><path class="cls-1" d="M96.93,78.21v.61l-.74,2.31h.74v.58H96a13.19,13.19,0,0,0-.42,1.47l-.06,0a6.36,6.36,0,0,0-.74,0l0,0a1.85,1.85,0,0,1,.09-.23l.78-2.31c.44-1.28.6-1.73.8-2.44l.06,0Zm.64,0,0-.06c-.29,0-.42,0-.61,0v.61l0-.09.67,2.4h-.7v.58h.86c.2.64.26.83.42,1.51l.07,0c.28,0,.44,0,.83,0l0,0c-.22-.7-.58-1.79-.8-2.47s-.48-1.57-.74-2.34Z"/><path class="cls-1" d="M105.62,83.22a2.39,2.39,0,0,1,.1-.29c.19-.74.45-1.45.67-2.15.13-.42.68-2.18.77-2.54l0-.06a5.31,5.31,0,0,1-.71,0l0,0c-.22.77-.42,1.51-.64,2.25l-.61,2.24-.64-2.24c-.42-1.57-.48-1.76-.61-2.25l0-.06a7.32,7.32,0,0,1-.84,0l0,0c0,.13.67,2.15.8,2.57.23.8.48,1.6.71,2.41l0,.06c.51,0,.55,0,1.06,0Z"/><path class="cls-1" d="M111.2,83.22c0-.26,0-.36,0-.55l0,0c-1,0-1.25,0-2.4,0,.41-.74.8-1.51,1.22-2.24.7-1.32.93-1.74,1.18-2.15l0-.1a9.1,9.1,0,0,1-1,0c-.73,0-1.47,0-2.18,0l-.06.06a3,3,0,0,1,0,.52l0,.06c1.06,0,1.44,0,2.15,0l-.77,1.48c-.55,1-1.06,2-1.61,2.91l0,.07h3.43Z"/><path class="cls-1" d="M113.13,83.22l0,0a7.31,7.31,0,0,0-.81,0l0-.06c0-.45,0-.81,0-1.64,0-1.09,0-2.25-.06-3.34l0,0,.77,0h1v.58h-.25a3.86,3.86,0,0,0-.68,0v2a4.18,4.18,0,0,0,.74,0H114v.61h-.89c0,.77,0,1,0,1.9m.86-1.9a1.9,1.9,0,0,0,1.48-.83,1.38,1.38,0,0,0,.22-.8,1.45,1.45,0,0,0-1-1.42,2.65,2.65,0,0,0-.71-.09v.58a.88.88,0,0,1,.81.51,1.06,1.06,0,0,1,.09.42.85.85,0,0,1-.13.51,1,1,0,0,1-.77.51Z"/><path class="cls-1" d="M116.3,82.41a5.23,5.23,0,0,0-.8,0l0,0c-.09.58-.18,1-.36,1.73h.58c.16-.43.4-1.19.65-1.76Z"/><path class="cls-1" d="M121.24,80.81v.58c-.41.09-.7.29-.7.7a.65.65,0,0,0,.67.68h0v.54a.61.61,0,0,1-.25,0,1.15,1.15,0,0,1-1.22-1.18c0-.8.54-1.16,1.47-1.35m0-1.35V80a3.18,3.18,0,0,0-1,.25l0,0v-.51l.06,0a2.74,2.74,0,0,1,1-.23m1.48,1.61a4.2,4.2,0,0,0-.06-.9,1.09,1.09,0,0,0-1.19-.74.69.69,0,0,0-.23,0V80h.07a.67.67,0,0,1,.61.25,1,1,0,0,1,.06.45l-.13,0a3.94,3.94,0,0,0-.61.06v.58a4.07,4.07,0,0,1,.68-.13H122v1.19a1.26,1.26,0,0,1-.74.32v.54A1.32,1.32,0,0,0,122,83v.26l0,.06a5.7,5.7,0,0,1,.71,0l0,0c0-.49,0-.55,0-1.45Z"/><path class="cls-1" d="M124.45,82.38a6,6,0,0,1-.77,0l-.06.07a1.38,1.38,0,0,1,0,.35,1.71,1.71,0,0,1,0,.39l.06.06a7.5,7.5,0,0,1,.8,0l0-.07v-.73Z"/><path class="cls-1" d="M128,81c-.45-.13-.74-.22-.74-.54s.19-.36.39-.42a1.27,1.27,0,0,1,.32,0,1.57,1.57,0,0,1,.93.29l.06,0c0-.28,0-.32,0-.57l0,0a2.35,2.35,0,0,0-1-.22c-.8,0-1.44.39-1.44,1.12a1.1,1.1,0,0,0,.93,1l.26.06c.42.16.74.26.74.61s-.23.52-.77.52a1.56,1.56,0,0,1-1-.32h-.09a3.13,3.13,0,0,1,0,.61l0,.06s.06,0,.12,0a2.15,2.15,0,0,0,1,.2,1.83,1.83,0,0,0,1.15-.36,1,1,0,0,0,.39-.83,1.14,1.14,0,0,0-.93-1.09Z"/><path class="cls-1" d="M130.57,82.4h-.63l-.07.07a1,1,0,0,1,0,.35,1.29,1.29,0,0,1,0,.39l.07.06a5.27,5.27,0,0,1,.63,0Z"/><path class="cls-2" d="M43.71,67.24l33.2-57.1a3.43,3.43,0,0,1,6,0l24,42.73c1.16,2.24.71,5.48-3.3,5.61l-19.38,0,5.07,8.79h16c7-.06,15.18-8.76,9.37-19.06L90.06,5.61A11.91,11.91,0,0,0,80.52,0H79a11.39,11.39,0,0,0-9.14,5.42L33.41,67.24Z"/><polygon class="cls-2" points="58.05 67.24 79.93 29.35 89.45 46.16 84.22 54.86 103.95 54.86 79.93 12.41 48.04 67.24 58.05 67.24"/><polygon class="cls-2" points="72.8 67.3 66.77 56.69 72.84 46.2 85.09 46.2 78.93 56.69 85.09 67.3 72.8 67.3"/><polygon class="cls-1" points="34.24 83.25 41.98 70.16 31.68 70.16 24.08 83.02 24.08 83.25 34.24 83.25"/><polygon class="cls-1" points="48.58 83.25 56.31 70.16 46.31 70.16 38.58 83.25 48.58 83.25"/><path class="cls-3" d="M3.8,105.93a4.64,4.64,0,0,1-1.65-.27,3.37,3.37,0,0,1-1.2-.78,3.44,3.44,0,0,1-.71-1.22A5.11,5.11,0,0,1,0,102a7.59,7.59,0,0,1,.41-2.48,6.82,6.82,0,0,1,1.17-2.1A5.74,5.74,0,0,1,3.41,96a5.13,5.13,0,0,1,2.39-.55,5.83,5.83,0,0,1,1.8.23,4,4,0,0,1,1,.44L8,97.28a4.29,4.29,0,0,0-.9-.41,4.19,4.19,0,0,0-1.35-.19,3.41,3.41,0,0,0-1.8.47,4.44,4.44,0,0,0-1.34,1.21A5.52,5.52,0,0,0,1.75,100a6.3,6.3,0,0,0-.29,1.84c0,1.88.81,2.82,2.44,2.82a5.37,5.37,0,0,0,.94-.07,6.07,6.07,0,0,0,.73-.17,3.28,3.28,0,0,0,.56-.21l.44-.2.17,1.22a4.23,4.23,0,0,1-.46.21,4.62,4.62,0,0,1-.66.22,8.07,8.07,0,0,1-.83.17,7.74,7.74,0,0,1-1,.06"/><path class="cls-3" d="M8,105.72l2.65-11,1.4-.24-.92,3.81a4.77,4.77,0,0,1,.7-.19,3.64,3.64,0,0,1,.74-.07,3.09,3.09,0,0,1,1.12.18,1.89,1.89,0,0,1,.76.49,2,2,0,0,1,.43.75,3.32,3.32,0,0,1,.14,1,5.83,5.83,0,0,1-.21,1.45l-.92,3.85H12.52l.86-3.56c.06-.27.13-.55.19-.83a3.8,3.8,0,0,0,.1-.79,1.44,1.44,0,0,0-.32-1,1.48,1.48,0,0,0-1.19-.39,4.38,4.38,0,0,0-.71.07,2.18,2.18,0,0,0-.62.18l-1.5,6.28Z"/><path class="cls-3" d="M20.27,98h.39l.43,0,.38.07.26.08-.39,1.18a2.87,2.87,0,0,0-.66-.18,4.59,4.59,0,0,0-.73-.06,4,4,0,0,0-.6,0,5,5,0,0,0-.51.11l-1.53,6.37H16l1.74-7.23A7.71,7.71,0,0,1,20.27,98"/><path class="cls-3" d="M26.39,105.8c-.05-.1-.1-.22-.15-.35s-.08-.27-.11-.41a4.46,4.46,0,0,1-.85.57,2.68,2.68,0,0,1-1.32.29,2.59,2.59,0,0,1-1.09-.2,1.93,1.93,0,0,1-.75-.56,2.38,2.38,0,0,1-.42-.86,4,4,0,0,1-.14-1.08,5.53,5.53,0,0,1,.33-1.89,4.73,4.73,0,0,1,1-1.65,4.62,4.62,0,0,1,1.64-1.17A5.44,5.44,0,0,1,26.79,98a6.73,6.73,0,0,1,.92.08,3.1,3.1,0,0,1,.89.29L27.49,103c0,.23-.09.44-.12.64a3.26,3.26,0,0,0-.05.64,3.85,3.85,0,0,0,.05.67,4.12,4.12,0,0,0,.21.73Zm-2.16-1a2,2,0,0,0,1.05-.26,3.23,3.23,0,0,0,.75-.61,4.87,4.87,0,0,1,0-.51,5.07,5.07,0,0,1,.09-.54L27,99.25a1,1,0,0,0-.24,0l-.29,0a3.43,3.43,0,0,0-1.49.32,3.48,3.48,0,0,0-1.14.85,3.76,3.76,0,0,0-.72,1.23,4.21,4.21,0,0,0-.26,1.47,3.23,3.23,0,0,0,.06.61,1.58,1.58,0,0,0,.21.55,1.18,1.18,0,0,0,.41.39,1.25,1.25,0,0,0,.65.15m3.92-9.28-2.44,1.85-.58-.71,2.29-2.18Z"/><path class="cls-3" d="M30.45,105.72H29.11l1.73-7.23a10.13,10.13,0,0,1,1.44-.33A9.2,9.2,0,0,1,33.66,98a3.09,3.09,0,0,1,1.12.18,1.89,1.89,0,0,1,.76.49,1.87,1.87,0,0,1,.43.75,3.32,3.32,0,0,1,.14,1,4.23,4.23,0,0,1-.06.7q-.06.38-.15.75L35,105.72H33.64l.85-3.56c.06-.27.13-.55.19-.83a3.23,3.23,0,0,0,.1-.79,1.44,1.44,0,0,0-.32-1,1.48,1.48,0,0,0-1.19-.39,5.65,5.65,0,0,0-.71,0,3.2,3.2,0,0,0-.57.11Z"/><path class="cls-3" d="M38.42,105.72H37.08l1.8-7.52h1.35Zm3.36-10.24-2.45,1.85-.58-.71L41,94.44Z"/><path class="cls-3" d="M49.38,98a2.68,2.68,0,0,1,1.08.19,1.92,1.92,0,0,1,.71.53,2.06,2.06,0,0,1,.38.77,3.61,3.61,0,0,1,.12.94,5.59,5.59,0,0,1-.05.68c0,.25-.08.49-.14.72l-.93,3.85H49.21l.85-3.56c0-.22.1-.47.17-.75a3.72,3.72,0,0,0,.09-.81,2.42,2.42,0,0,0-.06-.54,1.35,1.35,0,0,0-.22-.45,1.1,1.1,0,0,0-.43-.3,1.69,1.69,0,0,0-.68-.12,2.28,2.28,0,0,0-.89.18,7,7,0,0,0-.73.37c0,.14,0,.27,0,.4a2.53,2.53,0,0,1,0,.38,3.91,3.91,0,0,1-.06.68c0,.22-.07.45-.12.67l-.92,3.85H44.94l.86-3.56c0-.22.1-.47.15-.75a4,4,0,0,0,.09-.84A2.26,2.26,0,0,0,46,100a1.18,1.18,0,0,0-.19-.44.91.91,0,0,0-.37-.3,1.44,1.44,0,0,0-.59-.11,5.24,5.24,0,0,0-.7,0,5,5,0,0,0-.58.11L42,105.72H40.68l1.73-7.23a9.39,9.39,0,0,1,1.43-.33A9,9,0,0,1,45.22,98a2.26,2.26,0,0,1,1,.21,1.82,1.82,0,0,1,.67.55l.4-.23a4.45,4.45,0,0,1,.57-.24,6.6,6.6,0,0,1,.71-.21,4.15,4.15,0,0,1,.79-.08"/><path class="cls-3" d="M55.87,105.9a3.48,3.48,0,0,1-1.27-.21,2.41,2.41,0,0,1-.89-.58,2.21,2.21,0,0,1-.54-.86,3,3,0,0,1-.17-1,6.41,6.41,0,0,1,.3-1.95,5.15,5.15,0,0,1,.87-1.66,4.11,4.11,0,0,1,1.37-1.15A3.82,3.82,0,0,1,57.38,98a3.13,3.13,0,0,1,1,.15,2,2,0,0,1,.69.42,1.62,1.62,0,0,1,.4.6,1.85,1.85,0,0,1,.13.7,2.41,2.41,0,0,1-.25,1.15,2.48,2.48,0,0,1-.65.79,3.11,3.11,0,0,1-.94.49,10.34,10.34,0,0,1-1.13.27,9.43,9.43,0,0,1-1.19.14l-1.13.06a1.76,1.76,0,0,0,0,.19v.12a2.59,2.59,0,0,0,.08.63,1.24,1.24,0,0,0,.3.52,1.44,1.44,0,0,0,.6.35,3.07,3.07,0,0,0,1,.13,3.66,3.66,0,0,0,.57,0,4.76,4.76,0,0,0,.57-.13,3.85,3.85,0,0,0,.48-.16,1,1,0,0,0,.29-.15l.12,1.14a4.58,4.58,0,0,1-.93.34,5.71,5.71,0,0,1-1.52.18m-1.37-4.13c.56,0,1.07-.06,1.53-.11a4.61,4.61,0,0,0,1.2-.28,1.91,1.91,0,0,0,.79-.52,1.3,1.3,0,0,0,.28-.87.72.72,0,0,0,0-.28.69.69,0,0,0-.17-.26.94.94,0,0,0-.34-.21,1.62,1.62,0,0,0-.54-.08,2.16,2.16,0,0,0-.94.22,3,3,0,0,0-.79.57,3.36,3.36,0,0,0-.59.83,4.23,4.23,0,0,0-.38,1"/><path class="cls-3" d="M66.05,105.92a2.26,2.26,0,0,1-1.59-.48,1.85,1.85,0,0,1-.5-1.39,7.83,7.83,0,0,1,.2-1.52l1.55-6.43,1.4-.23-.56,2.33h2.56l-.28,1.12H66.27l-.79,3.33a4.71,4.71,0,0,0-.18,1.19.84.84,0,0,0,.26.68,1.43,1.43,0,0,0,.87.21,2.32,2.32,0,0,0,.82-.14,4.31,4.31,0,0,0,.63-.25l.1,1.14a3.76,3.76,0,0,1-.74.29,4.3,4.3,0,0,1-1.19.15"/><path class="cls-3" d="M71.93,105.9a2.45,2.45,0,0,1-1.86-.7,2.67,2.67,0,0,1-.68-1.93,7,7,0,0,1,.24-1.76,5.73,5.73,0,0,1,.76-1.71,4.38,4.38,0,0,1,1.35-1.29,3.79,3.79,0,0,1,2-.5,2.45,2.45,0,0,1,1.86.7,2.67,2.67,0,0,1,.67,1.93A7,7,0,0,1,76,102.4a5.47,5.47,0,0,1-.75,1.71,4.38,4.38,0,0,1-1.35,1.29,3.79,3.79,0,0,1-2,.5m.23-1.14a1.86,1.86,0,0,0,1.16-.38,3.36,3.36,0,0,0,.87-1,5,5,0,0,0,.54-1.29,5.14,5.14,0,0,0,.19-1.37,2,2,0,0,0-.32-1.18,1.27,1.27,0,0,0-1.1-.43,1.92,1.92,0,0,0-1.16.38,3.22,3.22,0,0,0-.87,1,4.63,4.63,0,0,0-.54,1.29,5.15,5.15,0,0,0-.19,1.38,2,2,0,0,0,.32,1.17,1.27,1.27,0,0,0,1.1.43"/><path class="cls-3" d="M81.76,105.72H80.41l1.74-7.23a9.53,9.53,0,0,1,1.44-.33A9,9,0,0,1,85,98a3.13,3.13,0,0,1,1.12.18,2,2,0,0,1,.76.49,2,2,0,0,1,.42.75,3,3,0,0,1,.14,1,4.23,4.23,0,0,1-.06.7c0,.25-.08.5-.14.75l-.93,3.85H84.94l.85-3.56c.07-.27.13-.55.2-.83a3.75,3.75,0,0,0,.09-.79,1.26,1.26,0,0,0-1.5-1.35,5.52,5.52,0,0,0-.71,0,3.34,3.34,0,0,0-.58.11Z"/><path class="cls-3" d="M91.61,105.9a3.5,3.5,0,0,1-1.28-.21,2.5,2.5,0,0,1-.89-.58,2.33,2.33,0,0,1-.54-.86,3.19,3.19,0,0,1-.17-1,6.41,6.41,0,0,1,.3-1.95,5.15,5.15,0,0,1,.87-1.66,4.21,4.21,0,0,1,1.37-1.15A3.82,3.82,0,0,1,93.11,98a3.13,3.13,0,0,1,1,.15,2,2,0,0,1,.69.42,1.62,1.62,0,0,1,.4.6,1.85,1.85,0,0,1,.13.7A2.41,2.41,0,0,1,95.1,101a2.48,2.48,0,0,1-.65.79,3.11,3.11,0,0,1-.94.49,9.81,9.81,0,0,1-1.13.27,9.43,9.43,0,0,1-1.19.14l-1.13.06a1.76,1.76,0,0,0,0,.19v.12a2.59,2.59,0,0,0,.08.63,1.36,1.36,0,0,0,.3.52,1.44,1.44,0,0,0,.6.35,3.07,3.07,0,0,0,1,.13,3.9,3.9,0,0,0,.58,0,5.07,5.07,0,0,0,.56-.13,3.85,3.85,0,0,0,.48-.16.84.84,0,0,0,.29-.15l.12,1.14a4.36,4.36,0,0,1-.93.34,5.68,5.68,0,0,1-1.51.18m-1.38-4.13c.56,0,1.07-.06,1.53-.11a4.61,4.61,0,0,0,1.2-.28,1.91,1.91,0,0,0,.79-.52A1.3,1.3,0,0,0,94,100a.72.72,0,0,0,0-.28.69.69,0,0,0-.17-.26.86.86,0,0,0-.34-.21,1.6,1.6,0,0,0-.53-.08,2.17,2.17,0,0,0-1,.22,3,3,0,0,0-.79.57,3.36,3.36,0,0,0-.59.83,4.23,4.23,0,0,0-.38,1"/><path class="cls-3" d="M97.29,105.43a10.29,10.29,0,0,1-.44,1.38,2.87,2.87,0,0,1-.6.93,2,2,0,0,1-.84.53,3.83,3.83,0,0,1-1.2.16,2.38,2.38,0,0,1-.56-.07,1.37,1.37,0,0,1-.48-.19l.3-1.11a1.34,1.34,0,0,0,.4.16,2.35,2.35,0,0,0,.54.06,1.12,1.12,0,0,0,1-.51,4,4,0,0,0,.54-1.33l1.74-7.24H99Zm1.5-8.59a.75.75,0,0,1-.55-.21.68.68,0,0,1-.23-.56,1,1,0,0,1,.29-.73.92.92,0,0,1,.65-.27.79.79,0,0,1,.56.21.75.75,0,0,1,.24.59.9.9,0,0,1-.31.7,1,1,0,0,1-.65.27"/><path class="cls-3" d="M99.82,103a6,6,0,0,1,.3-1.9,4.52,4.52,0,0,1,.87-1.6,4.18,4.18,0,0,1,1.42-1.11,4.23,4.23,0,0,1,1.92-.41,6.62,6.62,0,0,1,.91.06,3,3,0,0,1,.83.26l-.51,1.12a2.43,2.43,0,0,0-.54-.2,3.6,3.6,0,0,0-.8-.07,2.58,2.58,0,0,0-1.28.31,3.27,3.27,0,0,0-1,.82,3.94,3.94,0,0,0-.61,1.19,4.65,4.65,0,0,0-.21,1.4,3.13,3.13,0,0,0,.08.7,1.48,1.48,0,0,0,.29.59,1.32,1.32,0,0,0,.54.4,2.31,2.31,0,0,0,.86.14,4.15,4.15,0,0,0,1.08-.17l.44-.15a1.43,1.43,0,0,0,.29-.16l.11,1.15a3.69,3.69,0,0,1-.85.34,4.87,4.87,0,0,1-1.32.16,3.37,3.37,0,0,1-1.23-.21,2.39,2.39,0,0,1-.89-.59,2.47,2.47,0,0,1-.55-.91,3.32,3.32,0,0,1-.19-1.16"/><path class="cls-3" d="M109.09,105.9a3.45,3.45,0,0,1-1.27-.21,2.45,2.45,0,0,1-.9-.58,2.33,2.33,0,0,1-.54-.86,3.19,3.19,0,0,1-.17-1,6.41,6.41,0,0,1,.3-1.95,5.58,5.58,0,0,1,.87-1.66,4.25,4.25,0,0,1,1.38-1.15,3.8,3.8,0,0,1,1.83-.43,3,3,0,0,1,1,.15,1.92,1.92,0,0,1,.7.42,1.6,1.6,0,0,1,.39.6,1.85,1.85,0,0,1,.13.7,2.54,2.54,0,0,1-.24,1.15,2.62,2.62,0,0,1-.65.79,3.16,3.16,0,0,1-1,.49,9.81,9.81,0,0,1-1.13.27,9.27,9.27,0,0,1-1.18.14l-1.14.06a1.42,1.42,0,0,0,0,.19v.12a2.18,2.18,0,0,0,.08.63,1.22,1.22,0,0,0,.29.52,1.59,1.59,0,0,0,.6.35,3.14,3.14,0,0,0,1,.13,3.88,3.88,0,0,0,.57,0,4.59,4.59,0,0,0,.56-.13,3.85,3.85,0,0,0,.48-.16,1,1,0,0,0,.3-.15l.11,1.14a4.36,4.36,0,0,1-.93.34,5.63,5.63,0,0,1-1.51.18m-1.38-4.13c.56,0,1.08-.06,1.54-.11a4.81,4.81,0,0,0,1.2-.28,2,2,0,0,0,.79-.52,1.35,1.35,0,0,0,.28-.87,1,1,0,0,0,0-.28.72.72,0,0,0-.18-.26.86.86,0,0,0-.34-.21,1.6,1.6,0,0,0-.53-.08,2.21,2.21,0,0,0-1,.22,3.05,3.05,0,0,0-1.38,1.4,4.72,4.72,0,0,0-.38,1"/><path class="cls-3" d="M114.7,105.72h-1.35l1.74-7.23a9.53,9.53,0,0,1,1.44-.33,9,9,0,0,1,1.38-.12,3.13,3.13,0,0,1,1.12.18,1.83,1.83,0,0,1,1.18,1.24,3,3,0,0,1,.14,1,4.23,4.23,0,0,1-.06.7,6.58,6.58,0,0,1-.14.75l-.93,3.85h-1.34l.85-3.56c.07-.27.14-.55.2-.83a3.75,3.75,0,0,0,.09-.79,1.39,1.39,0,0,0-.32-1,1.45,1.45,0,0,0-1.18-.39,5.52,5.52,0,0,0-.71,0,3.54,3.54,0,0,0-.58.11Z"/><path class="cls-3" d="M122.67,105.72h-1.35l1.74-7.23a9.53,9.53,0,0,1,1.44-.33,9,9,0,0,1,1.38-.12,3.17,3.17,0,0,1,1.12.18,2,2,0,0,1,.76.49,2,2,0,0,1,.42.75,3.32,3.32,0,0,1,.14,1,4.23,4.23,0,0,1-.06.7c0,.25-.08.5-.14.75l-.93,3.85h-1.34l.85-3.56c.07-.27.13-.55.2-.83a3.75,3.75,0,0,0,.09-.79,1.44,1.44,0,0,0-.32-1,1.47,1.47,0,0,0-1.18-.39,5.52,5.52,0,0,0-.71,0,3.34,3.34,0,0,0-.58.11Z"/><path class="cls-3" d="M132.51,105.9a3.48,3.48,0,0,1-1.27-.21,2.66,2.66,0,0,1-.9-.57,2.48,2.48,0,0,1-.53-.86,3,3,0,0,1-.17-1.05,6.41,6.41,0,0,1,.3-1.95,5.26,5.26,0,0,1,.87-1.66,4.11,4.11,0,0,1,1.37-1.15A3.93,3.93,0,0,1,134,98a3.13,3.13,0,0,1,1,.15,2,2,0,0,1,.69.42,1.62,1.62,0,0,1,.4.6,1.85,1.85,0,0,1,.13.7A2.41,2.41,0,0,1,136,101a2.48,2.48,0,0,1-.65.79,3.11,3.11,0,0,1-.94.49,10.34,10.34,0,0,1-1.13.27,9.43,9.43,0,0,1-1.19.14l-1.13.06a1.76,1.76,0,0,0,0,.19v.12a2.59,2.59,0,0,0,.08.63,1.1,1.1,0,0,0,.3.52,1.35,1.35,0,0,0,.6.35,3.07,3.07,0,0,0,1,.13,2.75,2.75,0,0,0,.57,0,4.76,4.76,0,0,0,.57-.13,3.85,3.85,0,0,0,.48-.16,1.09,1.09,0,0,0,.29-.15l.12,1.14a4.72,4.72,0,0,1-.94.34,5.58,5.58,0,0,1-1.51.18m-1.37-4.13c.56,0,1.07-.06,1.53-.11a4.63,4.63,0,0,0,1.2-.27,2,2,0,0,0,.79-.53,1.28,1.28,0,0,0,.28-.87.72.72,0,0,0-.05-.28.69.69,0,0,0-.17-.26,1.1,1.1,0,0,0-.34-.21,1.69,1.69,0,0,0-.54-.07,2.15,2.15,0,0,0-.94.21,3,3,0,0,0-.79.57,3.36,3.36,0,0,0-.59.83,4.23,4.23,0,0,0-.38,1m3.21-6L136,94.6l.48.65-2.35,2-1.53-2.14.64-.6Z"/><path class="cls-3" d="M138.2,105.43a12,12,0,0,1-.44,1.38,2.87,2.87,0,0,1-.6.93,2.11,2.11,0,0,1-.84.53,3.83,3.83,0,0,1-1.2.16,2.38,2.38,0,0,1-.56-.07,1.37,1.37,0,0,1-.48-.19l.3-1.11a1.34,1.34,0,0,0,.4.16,2.35,2.35,0,0,0,.54.06,1.12,1.12,0,0,0,1-.51,4,4,0,0,0,.54-1.33l1.74-7.24h1.34Zm1.5-8.59a.79.79,0,0,1-.56-.21.7.7,0,0,1-.22-.56,1,1,0,0,1,.29-.73.92.92,0,0,1,.65-.27.79.79,0,0,1,.56.21.74.74,0,0,1,.23.59.89.89,0,0,1-.3.7,1,1,0,0,1-.65.27"/><path class="cls-3" d="M142.26,104.78a3.15,3.15,0,0,0,.61-.06,1.78,1.78,0,0,0,.55-.19,1.1,1.1,0,0,0,.39-.35,1,1,0,0,0,.16-.56.89.89,0,0,0-.08-.38,1,1,0,0,0-.23-.32,2.3,2.3,0,0,0-.4-.28l-.57-.31a5.57,5.57,0,0,1-.6-.32,2,2,0,0,1-.49-.37,1.46,1.46,0,0,1-.32-.52,1.85,1.85,0,0,1-.12-.71,2.17,2.17,0,0,1,.78-1.74,3.43,3.43,0,0,1,2.27-.66,4.5,4.5,0,0,1,1.22.14,3.09,3.09,0,0,1,.73.25l-.5,1.1a3.28,3.28,0,0,0-.65-.25,3.85,3.85,0,0,0-1-.13,2.57,2.57,0,0,0-.55.06,1.67,1.67,0,0,0-.5.19,1.16,1.16,0,0,0-.36.37,1,1,0,0,0-.14.54.78.78,0,0,0,.31.64,3.76,3.76,0,0,0,.91.53c.25.12.47.23.67.35a2.33,2.33,0,0,1,.5.41,1.42,1.42,0,0,1,.32.53,2,2,0,0,1,.11.72,2.44,2.44,0,0,1-.23,1.07,2.17,2.17,0,0,1-.64.77,2.94,2.94,0,0,1-1,.45,4.82,4.82,0,0,1-1.23.15,6,6,0,0,1-.89-.06c-.26,0-.49-.1-.69-.15a3.73,3.73,0,0,1-.49-.18l-.3-.16.52-1.09.28.14a2.7,2.7,0,0,0,.44.17,4,4,0,0,0,.55.15,3.39,3.39,0,0,0,.64.06m2.39-9,1.62-1.18.47.65-2.34,2-1.53-2.14.63-.6Z"/><path class="cls-3" d="M147.68,105.71h-1.34l1.8-7.51h1.35ZM151,95.48l-2.45,1.85-.58-.71,2.29-2.18.74,1Z"/></g></g></svg>